<svg aria-hidden="true" style="position:absolute;width:0;height:0;overflow:hidden" xmlns="http://www.w3.org/2000/svg">
  <defs>
    <symbol id="pricing__tick" viewBox="0 0 20 20">
      <path d="M2.93 17.07A9.97 9.97 0 0 1-.123 9.877c0-5.523 4.477-10 10-10a9.968 9.968 0 0 1 7.19 3.05l.003.003a9.963 9.963 0 0 1 2.807 6.947c0 5.523-4.477 10-10 10-2.7 0-5.151-1.07-6.95-2.81l.003.003zm12.73-1.41A8.004 8.004 0 1 0 4.34 4.34a8.004 8.004 0 1 0 11.32 11.32zM6.7 9.29 9 11.6l4.3-4.3 1.4 1.42L9 14.4l-3.7-3.7 1.4-1.42z"/>
    </symbol>
  </defs>
</svg>